<svg xmlns="http://www.w3.org/2000/svg" width="41.795" height="41.83" viewBox="0 0 41.795 41.83">
  <g id="Component_16_1" data-name="Component 16 – 1" transform="translate(0 0)">
    <path id="Path_426" data-name="Path 426" d="M148.324,137.8H111.231a1.186,1.186,0,0,1-.75-.279,1.315,1.315,0,0,1-.5-.975V99.454a1.317,1.317,0,0,1,.662-1.078,1.175,1.175,0,0,1,.184-.085,2.518,2.518,0,0,1,.618-.151c.33-.037.661-.011.991-.018.21,0,.42,0,.63,0,.293,0,.587-.006.88,0,.229-.007.457-.005.685,0,.294,0,.589-.006.883,0q.368-.01.735,0c.31-.013.621,0,.931,0,.179-.006.359,0,.537,0,.327,0,.653-.005.98,0,.212-.006.424,0,.636,0,.294,0,.588-.006.881,0,.228-.007.457-.005.685,0,.294,0,.589-.006.883,0q.368-.01.735,0c.31-.013.621,0,.932,0,.179-.006.358,0,.537,0,.327,0,.654-.005.98,0,.212-.006.424,0,.636,0,.294,0,.588-.006.881,0,.228-.007.457-.005.685,0,.294,0,.589-.006.883,0q.368-.01.735,0c.311-.013.621,0,.932,0,.179-.006.358,0,.537,0,.326,0,.653-.005.98,0,.212-.006.424,0,.636,0,.294,0,.588-.006.882,0,.228-.007.456-.005.685,0,.294,0,.589-.006.883,0q.368-.01.736,0c.31-.013.621,0,.931,0,.179-.006.358,0,.537,0,.326,0,.652-.006.979,0,.21-.006.42,0,.63,0,.284.006.568-.014.852.011.076.011.148.03.173.117,0,.108-.081.164-.141.234a8.371,8.371,0,0,1-.63.678.936.936,0,0,0-.173.211,6.087,6.087,0,0,0-.461.512c-.1.12-.212.22-.316.332-.163.134-.267.321-.416.468a3.85,3.85,0,0,0-.356.379c-.119.149-.255.283-.387.42-.3.323-.564.674-.878.981a.529.529,0,0,1-.3.19c-.678.033-1.357.016-2.034.013-4.053-.015-8.106,0-12.159,0q-2.727,0-5.454,0a1.383,1.383,0,0,0-.389.022.668.668,0,0,0-.571.738c0,.146,0,.291,0,.438.02.409.009.819.009,1.228q0,3.931,0,7.862a2.377,2.377,0,0,1-.008.287c.01.8.012,1.6,0,2.4.009.236.008.472,0,.708.006.139.008.278.008.417q0,7.72,0,15.441a4.265,4.265,0,0,0,.015.494.762.762,0,0,0,.124.364,1.016,1.016,0,0,0,.888.221c.758,0,1.515-.011,2.272,0,.263,0,.527-.01.79,0,.262-.007.524-.008.785,0,.261-.008.522-.006.783,0,.245-.009.49-.007.734,0,.278,0,.555-.009.833,0,.262-.007.523-.008.784,0,.261-.01.522,0,.784,0s.522-.007.783,0,.523-.01.784,0c.261-.007.522-.008.783,0,.261-.008.522-.006.783,0,.246-.009.491-.007.736,0,.281,0,.562-.009.844,0q1.163-.016,2.326,0c.265,0,.529-.011.794,0,.262-.007.524-.008.785,0,.262-.008.523-.006.784,0,.246-.009.491-.007.736,0,.281,0,.562-.009.844,0q1.163-.016,2.327,0c.264,0,.529-.011.793,0,.262-.007.524-.008.786,0,.261-.008.522-.006.783,0,.246-.009.491-.007.736,0,.281,0,.562-.009.844,0q1.162-.016,2.325,0c.261,0,.522-.011.782,0,.244,0,.487,0,.731,0a.633.633,0,0,0,.7-.505.745.745,0,0,1,.023-.089c.026-.47.01-.94.01-1.41q0-4.254,0-8.507a1.3,1.3,0,0,0-.036-.44c-.052-.909-.017-1.818-.019-2.728,0-.562-.029-1.126,0-1.689-.01-.233-.005-.466,0-.7,0-.281-.009-.561,0-.842-.019-.514.014-1.027,0-1.541-.006-.282-.015-.563.008-.844a.943.943,0,0,1,.214-.4,1.136,1.136,0,0,0,.23-.328c.38-.487.725-1,1.087-1.5.069-.094.146-.184.208-.284.1-.192.263-.34.38-.52.5-.726,1.014-1.441,1.527-2.158a1.91,1.91,0,0,0,.133-.222c.084-.126.192-.232.282-.354a1.2,1.2,0,0,1,.174-.224c.079-.066.139-.06.165.052a3.826,3.826,0,0,1,.024.625q0,13.678,0,27.356a2,2,0,0,0,.019.441.515.515,0,0,1,.009.184,1.618,1.618,0,0,1-.685.978A1.807,1.807,0,0,1,148.324,137.8Z" transform="translate(-109.977 -95.972)" fill="#fff"/>
    <path id="Path_427" data-name="Path 427" d="M156.887,93.878v.052a1.888,1.888,0,0,1-.233.383c-.091.106-.17.222-.255.333-.2.264-.369.551-.571.815s-.38.52-.561.787a2.233,2.233,0,0,0-.173.221c-.124.2-.3.368-.416.574-.355.521-.733,1.024-1.1,1.536a.9.9,0,0,0-.11.136,7.718,7.718,0,0,1-.455.639c-.579.787-1.127,1.6-1.709,2.382-.048.069-.093.14-.146.206-.18.2-.318.434-.479.649-.315.476-.661.929-1,1.385a1.661,1.661,0,0,0-.123.173q-.214.325-.455.631c-.117.146-.2.314-.31.466a3.66,3.66,0,0,0-.279.368q-.6.822-1.182,1.65c-.029.038-.055.077-.081.116-.166.2-.3.416-.456.621-.095.148-.2.285-.309.424-.074.1-.157.2-.223.31-.154.251-.359.465-.513.716-.034.049-.07.095-.1.146-.179.238-.346.484-.525.721-.353.474-.668.975-1.038,1.437-.042.058-.077.121-.121.177-.2.249-.362.521-.556.771-.028.037-.054.076-.08.114-.172.221-.321.459-.49.683a3.489,3.489,0,0,1-.229.312,4.125,4.125,0,0,0-.318.458c-.184.215-.33.459-.508.677a.627.627,0,0,0-.12.168c-.14.222-.309.423-.462.636-.582.82-1.154,1.647-1.765,2.446-.166.264-.366.5-.529.769a3.6,3.6,0,0,0-.265.333c-.1.164-.209.317-.322.471-.35.506-.73.991-1.08,1.5-.081.132-.2.236-.277.369-.1.157-.2.32-.315.472-.4.49-.737,1.032-1.118,1.538-.013.021-.027.04-.04.06-.184.25-.367.5-.551.752a2.9,2.9,0,0,1-.209.285c-.131.164-.248.337-.364.511-.335.493-.685.974-1.045,1.449a1.667,1.667,0,0,0-.207.284c-.127.215-.3.4-.425.614-.376.467-.7.97-1.046,1.458a8.078,8.078,0,0,0-.631.877,3.647,3.647,0,0,0-.22.293l-.049.061c-.2.246-.311.25-.462-.014-.224-.391-.5-.753-.7-1.157a6.623,6.623,0,0,1-.381-.616c-.047-.083-.1-.162-.148-.245-.139-.223-.281-.445-.415-.671a4,4,0,0,1-.277-.446c-.079-.106-.128-.23-.2-.337-.5-.783-.981-1.581-1.465-2.375-.306-.47-.6-.949-.883-1.43-.2-.339-.4-.676-.616-1-.321-.514-.628-1.037-.95-1.552-.312-.486-.622-.973-.917-1.469-.145-.222-.259-.465-.421-.677a.591.591,0,0,1-.035-.063c-.184-.306-.388-.6-.549-.919-.056-.091-.116-.18-.177-.268a5.182,5.182,0,0,1-.3-.492c-.3-.5-.619-1-.929-1.5a6.182,6.182,0,0,0-.368-.581,1.375,1.375,0,0,0-.137-.229c-.251-.384-.214-.457.239-.49.753-.005,1.506-.012,2.259,0,.246,0,.492,0,.737,0,.358,0,.566.272.826.447a8.265,8.265,0,0,1,.678.521c.825.61,1.616,1.266,2.454,1.861a.559.559,0,0,1,.06.042,9.609,9.609,0,0,0,.774.6c.058.041.107.091.165.132a5.3,5.3,0,0,0,.569.414c.351.284.712.556,1.075.824.257.19.258.187.485-.041a3.934,3.934,0,0,0,.365-.426c.41-.421.778-.881,1.2-1.292a2.065,2.065,0,0,0,.313-.339c.636-.746,1.313-1.455,1.973-2.18a.5.5,0,0,0,.14-.153c.21-.216.394-.455.605-.67a1.208,1.208,0,0,0,.208-.233c.167-.211.369-.39.539-.6a2.807,2.807,0,0,0,.208-.229c.2-.165.328-.389.513-.565a3.282,3.282,0,0,0,.267-.275c.139-.161.271-.328.418-.482.759-.812,1.491-1.647,2.24-2.466.609-.666,1.212-1.339,1.824-2,.317-.344.624-.7.947-1.039.272-.231.451-.548.718-.784.029-.037.057-.076.088-.111.226-.245.467-.477.685-.73a1.066,1.066,0,0,1,.088-.115c.2-.192.359-.42.557-.613.076-.073.153-.147.223-.226.132-.172.275-.336.414-.5.11-.1.218-.211.322-.323a7.047,7.047,0,0,0,.494-.53c.107-.14.223-.272.342-.4a2.806,2.806,0,0,0,.348-.388c.4-.423.782-.873,1.2-1.286a2,2,0,0,0,.311-.337c.382-.508.845-.945,1.264-1.42a1.6,1.6,0,0,0,.117-.131,8.788,8.788,0,0,0,.6-.687.763.763,0,0,0,.132-.113c.2-.222.395-.442.6-.655.062-.083.148-.146.209-.23.144-.186.325-.336.475-.517.105-.092.173-.218.276-.312a7.034,7.034,0,0,1,.476-.532c.137-.156.284-.3.407-.472a.793.793,0,0,1,.776-.354c1,.023,2,.008,3,.01A.553.553,0,0,1,156.887,93.878Z" transform="translate(-115.092 -93.844)" fill="#61d038"/>
  </g>
</svg>
