<svg xmlns="http://www.w3.org/2000/svg" width="39.552" height="39.684" viewBox="0 0 39.552 39.684">
  <g id="Component_20_1" data-name="Component 20 – 1" transform="translate(0 0)">
    <path id="Path_426" data-name="Path 426" d="M148.324,137.8H111.231a1.186,1.186,0,0,1-.75-.279,1.315,1.315,0,0,1-.5-.975V99.454a1.317,1.317,0,0,1,.662-1.078,1.175,1.175,0,0,1,.184-.085,2.518,2.518,0,0,1,.618-.151c.33-.037.661-.011.991-.018.21,0,.42,0,.63,0,.293,0,.587-.006.88,0,.229-.007.457-.005.685,0,.294,0,.589-.006.883,0q.368-.01.735,0c.31-.013.621,0,.931,0,.179-.006.359,0,.537,0,.327,0,.653-.005.98,0,.212-.006.424,0,.636,0,.294,0,.588-.006.881,0,.228-.007.457-.005.685,0,.294,0,.589-.006.883,0q.368-.01.735,0c.31-.013.621,0,.932,0,.179-.006.358,0,.537,0,.327,0,.654-.005.98,0,.212-.006.424,0,.636,0,.294,0,.588-.006.881,0,.228-.007.457-.005.685,0,.294,0,.589-.006.883,0q.368-.01.735,0c.311-.013.621,0,.932,0,.179-.006.358,0,.537,0,.326,0,.653-.005.98,0,.212-.006.424,0,.636,0,.294,0,.588-.006.882,0,.228-.007.456-.005.685,0,.294,0,.589-.006.883,0q.368-.01.736,0c.31-.013.621,0,.931,0,.179-.006.358,0,.537,0,.326,0,.652-.006.979,0,.21-.006.42,0,.63,0,.284.006.568-.014.852.011.076.011.148.03.173.117,0,.108-.081.164-.141.234a8.371,8.371,0,0,1-.63.678.936.936,0,0,0-.173.211,6.087,6.087,0,0,0-.461.512c-.1.12-.212.22-.316.332-.163.134-.267.321-.416.468a3.85,3.85,0,0,0-.356.379c-.119.149-.255.283-.387.42-.3.323-.564.674-.878.981a.529.529,0,0,1-.3.19c-.678.033-1.357.016-2.034.013-4.053-.015-8.106,0-12.159,0q-2.727,0-5.454,0a1.383,1.383,0,0,0-.389.022.668.668,0,0,0-.571.738c0,.146,0,.291,0,.438.02.409.009.819.009,1.228q0,3.931,0,7.862a2.377,2.377,0,0,1-.008.287c.01.8.012,1.6,0,2.4.009.236.008.472,0,.708.006.139.008.278.008.417q0,7.72,0,15.441a4.265,4.265,0,0,0,.015.494.762.762,0,0,0,.124.364,1.016,1.016,0,0,0,.888.221c.758,0,1.515-.011,2.272,0,.263,0,.527-.01.79,0,.262-.007.524-.008.785,0,.261-.008.783,0,.783,0s.49-.007.734,0c.278,0,.555-.009.833,0,.262-.007.523-.008.784,0,.261-.01.522,0,.784,0s.522-.007.783,0,.523-.01.784,0c.261-.007.522-.008.783,0,.261-.008.522-.006.783,0,.246-.009.491-.007.736,0,.281,0,.562-.009.844,0q1.163-.016,2.326,0c.265,0,.529-.011.794,0,.262-.007.524-.008.785,0,.262-.008.523-.006.784,0,.246-.009.491-.007.736,0,.281,0,.562-.009.844,0q1.163-.016,2.327,0c.264,0,.529-.011.793,0,.262-.007.524-.008.786,0,.261-.008.522-.006.783,0,.246-.009.491-.007.736,0,.281,0,.562-.009.844,0q1.162-.016,2.325,0c.261,0,.522-.011.782,0,.244,0,.487,0,.731,0a.633.633,0,0,0,.7-.505.745.745,0,0,1,.023-.089c.026-.47.01-.94.01-1.41q0-4.254,0-8.507a1.3,1.3,0,0,0-.036-.44c-.052-.909-.017-1.818-.019-2.728,0-.562-.029-1.126,0-1.689-.01-.233-.005-.466,0-.7,0-.281-.009-.561,0-.842-.019-.514.014-1.027,0-1.541-.006-.282-.015-.563.008-.844a.943.943,0,0,1,.214-.4,1.136,1.136,0,0,0,.23-.328c.38-.487.725-1,1.087-1.5.069-.094.146-.184.208-.284.1-.192.263-.34.38-.52.5-.726,1.014-1.441,1.527-2.158a1.91,1.91,0,0,0,.133-.222c.084-.126.192-.232.282-.354a1.2,1.2,0,0,1,.174-.224c.079-.066.139-.06.165.052a3.826,3.826,0,0,1,.024.625c0,8.079,0,16.158,0,24.547,0,.729,0,1.769,0,2.809a2,2,0,0,0,.019.441.515.515,0,0,1,.009.184,1.618,1.618,0,0,1-.685.978A1.807,1.807,0,0,1,148.324,137.8Z" transform="translate(-109.977 -98.118)" fill="#fff"/>
  </g>
</svg>
