<svg id="Layer_1" data-name="Layer 1" xmlns="http://www.w3.org/2000/svg" viewBox="0 0 322.9 56.13"><defs><style>.cls-1{fill:#3e4347;}.cls-2{fill:#61d038;}.cls-3{isolation:isolate;}</style></defs><title>GOVCHECK LOGO</title><g id="Component_16_1" data-name="Component 16 1"><path id="Path_426" data-name="Path 426" class="cls-1" d="M51.45,56.12H1.68a1.64,1.64,0,0,1-1-.37A1.76,1.76,0,0,1,0,54.44V4.67A1.75,1.75,0,0,1,.89,3.23a1.15,1.15,0,0,1,.25-.12A3.28,3.28,0,0,1,2,2.91c.45-.05.89,0,1.33,0s.57,0,.85,0,.79,0,1.18,0,.61,0,.92,0,.79,0,1.18,0,.66,0,1,0,.83,0,1.25,0q.36,0,.72,0c.44,0,.88,0,1.32,0,.28,0,.56,0,.85,0s.79,0,1.18,0,.61,0,.92,0,.79,0,1.18,0,.66,0,1,0,.83,0,1.25,0q.36,0,.72,0c.44,0,.88,0,1.32,0,.28,0,.56,0,.85,0s.79,0,1.18,0,.61,0,.92,0,.79,0,1.18,0,.66,0,1,0,.83,0,1.25,0q.36,0,.72,0c.44,0,.88,0,1.31,0s.57,0,.86,0,.79,0,1.18,0,.61,0,.92,0,.79,0,1.18,0,.66,0,1,0,.83,0,1.25,0q.36,0,.72,0c.44,0,.88,0,1.31,0s.57,0,.85,0,.76,0,1.14,0c.1,0,.2,0,.23.16s-.1.22-.19.31a10.29,10.29,0,0,1-.84.91,1.09,1.09,0,0,0-.23.29,6.67,6.67,0,0,0-.62.68c-.13.16-.28.3-.42.45a8.39,8.39,0,0,0-.56.63,5.79,5.79,0,0,0-.48.51c-.16.2-.34.37-.52.56-.4.43-.76.9-1.18,1.32a.76.76,0,0,1-.4.25C32.79,9,31.88,9,31,9,25.54,9,20.1,9,14.66,9H7.35a2.36,2.36,0,0,0-.53,0,.89.89,0,0,0-.76,1v.59c0,.55,0,1.1,0,1.65V22.78c0,.13,0,.26,0,.39,0,1.07,0,2.14,0,3.22,0,.31,0,.63,0,.95s0,.37,0,.56V48.61a5,5,0,0,0,0,.67.93.93,0,0,0,.17.48,1.32,1.32,0,0,0,1.19.3c1,0,2,0,3.05,0,.35,0,.7,0,1.06,0s.7,0,1,0,.7,0,1.05,0,.66,0,1,0,.74,0,1.12,0,.7,0,1.05,0,.7,0,1.05,0,.7,0,1.05,0,.7,0,1,0,.7,0,1.05,0,.7,0,1.05,0,.66,0,1,0,.76,0,1.13,0c1,0,2.08,0,3.13,0,.35,0,.71,0,1.06,0s.7,0,1.05,0,.7,0,1.06,0,.65,0,1,0,.76,0,1.14,0q1.56,0,3.12,0c.35,0,.71,0,1.06,0s.7,0,1.06,0,.7,0,1,0,.65,0,1,0,.76,0,1.14,0q1.56,0,3.12,0c.35,0,.7,0,1,0h1a.85.85,0,0,0,.93-.67s0-.08,0-.12c0-.63,0-1.26,0-1.89V36a1.67,1.67,0,0,0,0-.59c-.07-1.22,0-2.44,0-3.66,0-.75,0-1.51,0-2.26,0-.32,0-.63,0-.94s0-.75,0-1.13c0-.69,0-1.38,0-2.07a10.65,10.65,0,0,1,0-1.13,1.24,1.24,0,0,1,.29-.54,1.49,1.49,0,0,0,.3-.44c.51-.65,1-1.34,1.46-2a2.66,2.66,0,0,0,.28-.38c.14-.25.35-.45.51-.7.67-1,1.36-1.93,2-2.89a2.38,2.38,0,0,0,.18-.3c.11-.17.26-.31.38-.48a1.6,1.6,0,0,1,.23-.3c.11-.08.19-.08.22.07a3.94,3.94,0,0,1,0,.84v36.7a2.88,2.88,0,0,0,0,.59.7.7,0,0,1,0,.25,2.17,2.17,0,0,1-.92,1.31A2.35,2.35,0,0,1,51.45,56.12Z" transform="translate(0 0.01)"/><path id="Path_427" data-name="Path 427" class="cls-2" d="M56.07.05V.12a2.67,2.67,0,0,1-.31.51c-.12.14-.23.3-.34.45-.27.35-.5.74-.77,1.09s-.51.7-.75,1.05a2.34,2.34,0,0,0-.24.31c-.16.27-.4.49-.55.77-.48.7-1,1.37-1.48,2.06a1.43,1.43,0,0,0-.15.18,10.29,10.29,0,0,1-.61.86c-.77,1-1.51,2.14-2.29,3.2a2.69,2.69,0,0,1-.2.27c-.24.27-.43.59-.64.88-.43.63-.89,1.24-1.35,1.85a2,2,0,0,0-.16.24c-.2.29-.4.57-.62.84s-.26.42-.41.63a3.5,3.5,0,0,0-.37.49c-.54.73-1.07,1.47-1.59,2.21l-.11.16c-.22.26-.4.56-.61.83s-.28.39-.42.57-.21.27-.3.42c-.2.33-.48.62-.68,1a1,1,0,0,0-.14.2c-.24.32-.46.65-.7,1-.47.64-.9,1.31-1.39,1.93-.06.08-.1.17-.16.24-.27.33-.49.7-.75,1l-.11.15c-.23.3-.43.61-.65.92-.1.14-.2.28-.31.41a5.27,5.27,0,0,0-.43.62c-.25.29-.44.61-.68.91a.69.69,0,0,0-.16.22c-.19.3-.42.57-.62.86-.78,1.1-1.55,2.21-2.37,3.28-.22.35-.49.67-.71,1a5.37,5.37,0,0,0-.35.45c-.13.22-.28.42-.43.63-.47.68-1,1.33-1.45,2-.11.17-.27.31-.38.49s-.27.43-.42.63c-.54.66-1,1.39-1.5,2.07l-.05.08c-.25.33-.49.67-.74,1-.09.13-.18.26-.28.38a6.63,6.63,0,0,0-.49.69c-.45.66-.92,1.3-1.4,1.94a2.07,2.07,0,0,0-.28.38c-.17.29-.4.54-.57.82-.5.63-.94,1.3-1.4,2a9.72,9.72,0,0,0-.84,1.18,3.68,3.68,0,0,0-.3.39l-.07.08c-.27.33-.42.34-.62,0-.3-.52-.66-1-.93-1.55a7.74,7.74,0,0,1-.52-.83c-.06-.11-.13-.21-.2-.32l-.55-.9a5.39,5.39,0,0,1-.37-.6c-.11-.15-.17-.31-.28-.46-.67-1-1.31-2.12-2-3.18-.41-.63-.8-1.28-1.19-1.92-.26-.46-.53-.91-.82-1.35-.44-.69-.85-1.39-1.28-2.08s-.83-1.3-1.23-2c-.19-.3-.35-.62-.56-.91a.22.22,0,0,1-.05-.08c-.25-.41-.52-.81-.74-1.23a3.17,3.17,0,0,0-.23-.36c-.15-.22-.28-.44-.4-.66-.41-.68-.84-1.35-1.25-2-.15-.27-.32-.53-.49-.78a3.21,3.21,0,0,0-.19-.31c-.33-.51-.29-.61.32-.65,1,0,2,0,3,0q.5,0,1,0c.48,0,.76.36,1.11.6s.62.45.91.7c1.11.82,2.17,1.7,3.29,2.5l.08,0a11.6,11.6,0,0,0,1,.81l.22.18a6,6,0,0,0,.77.55q.7.57,1.44,1.11c.34.25.34.25.65-.06a3.87,3.87,0,0,0,.49-.57c.55-.56,1-1.18,1.61-1.73a3,3,0,0,0,.42-.45c.85-1,1.76-2,2.64-2.93a.61.61,0,0,0,.19-.2c.28-.29.53-.62.81-.9a1.69,1.69,0,0,0,.28-.32c.23-.28.5-.52.73-.8a4,4,0,0,0,.28-.3c.26-.23.44-.53.68-.76a4.17,4.17,0,0,0,.36-.37c.19-.22.37-.44.56-.65,1-1.09,2-2.21,3-3.31.82-.89,1.62-1.8,2.45-2.68.42-.46.83-.94,1.27-1.4.36-.31.6-.73,1-1.05l.12-.15c.3-.33.63-.64.92-1a.79.79,0,0,1,.12-.15c.26-.26.48-.57.74-.82l.3-.3c.18-.24.37-.46.56-.68s.29-.28.43-.43a8.81,8.81,0,0,0,.66-.71c.15-.19.3-.37.46-.54a3.87,3.87,0,0,0,.47-.52c.54-.57,1-1.17,1.61-1.73a2.52,2.52,0,0,0,.41-.45c.52-.68,1.14-1.27,1.7-1.9l.16-.18c.28-.29.55-.6.81-.92a.8.8,0,0,0,.17-.15c.27-.3.53-.6.81-.88.08-.11.2-.2.28-.31s.44-.45.64-.69.23-.3.37-.42a8.67,8.67,0,0,1,.64-.72,8.14,8.14,0,0,0,.54-.63,1.06,1.06,0,0,1,1-.49c1.34,0,2.68,0,4,0A.7.7,0,0,1,56.07.05Z" transform="translate(0 0.01)"/><g id="GovCHECK" class="cls-3"><g class="cls-3"><path class="cls-2" d="M105.32,44.48a26,26,0,0,1-6.62,2.39,33.72,33.72,0,0,1-7,.74,20,20,0,0,1-7-1.2A16.12,16.12,0,0,1,79.06,43a15.29,15.29,0,0,1-3.66-5.4,18.5,18.5,0,0,1-1.31-7.09,18.49,18.49,0,0,1,1.31-7.08A15.29,15.29,0,0,1,79.06,18a16.12,16.12,0,0,1,5.56-3.43,20,20,0,0,1,7-1.2,26,26,0,0,1,7.2.95,14,14,0,0,1,5.77,3.24l-5.06,5.52a10,10,0,0,0-3.31-2.3,11.81,11.81,0,0,0-4.6-.78,10.67,10.67,0,0,0-4.16.78A9.42,9.42,0,0,0,84.3,23a9.71,9.71,0,0,0-2,3.34,12.75,12.75,0,0,0,0,8.39,9.72,9.72,0,0,0,2,3.32,9.42,9.42,0,0,0,3.2,2.18,10.67,10.67,0,0,0,4.16.78,13.44,13.44,0,0,0,4-.53,14.88,14.88,0,0,0,2.71-1.08V34.08H92.58V27.46h12.74Z" transform="translate(0 0.01)"/><path class="cls-2" d="M109.92,35.6a11.77,11.77,0,0,1,1-4.83,11.09,11.09,0,0,1,2.65-3.7,11.48,11.48,0,0,1,3.95-2.37,14.61,14.61,0,0,1,9.71,0,11.67,11.67,0,0,1,4,2.37,11.24,11.24,0,0,1,2.65,3.7,12.63,12.63,0,0,1,0,9.66,11.13,11.13,0,0,1-2.65,3.7,11.67,11.67,0,0,1-4,2.37,14.61,14.61,0,0,1-9.71,0,11.48,11.48,0,0,1-3.95-2.37,11,11,0,0,1-2.65-3.7A11.77,11.77,0,0,1,109.92,35.6Zm6.9,0a5.83,5.83,0,0,0,1.45,4.1,6.1,6.1,0,0,0,8.15,0,5.83,5.83,0,0,0,1.44-4.1,5.8,5.8,0,0,0-1.44-4.09,6.07,6.07,0,0,0-8.15,0A5.81,5.81,0,0,0,116.82,35.6Z" transform="translate(0 0.01)"/><path class="cls-2" d="M136.46,24.42h7.46l5.66,15.18h.09l5.24-15.18h7L153,46.78h-7.31Z" transform="translate(0 0.01)"/></g><g class="cls-3"><path class="cls-1" d="M186.56,22.68a7,7,0,0,0-2.6-2A8.66,8.66,0,0,0,180.4,20a8.93,8.93,0,0,0-6.74,3,10,10,0,0,0-2,3.34,11.88,11.88,0,0,0-.71,4.18,11.81,11.81,0,0,0,.71,4.21A10.51,10.51,0,0,0,173.63,38a8.91,8.91,0,0,0,2.92,2.18,8.5,8.5,0,0,0,3.62.78,8,8,0,0,0,3.91-.92,7.74,7.74,0,0,0,2.8-2.57l6,4.46a12.5,12.5,0,0,1-5.24,4.28,16.26,16.26,0,0,1-6.53,1.38,20,20,0,0,1-7-1.2A16.16,16.16,0,0,1,168.48,43a15.55,15.55,0,0,1-3.66-5.4,18.5,18.5,0,0,1-1.31-7.09,18.49,18.49,0,0,1,1.31-7.08,15.55,15.55,0,0,1,3.66-5.4,16.16,16.16,0,0,1,5.57-3.43,20,20,0,0,1,7-1.2,17.1,17.1,0,0,1,2.87.26,15.25,15.25,0,0,1,2.94.8,13.33,13.33,0,0,1,2.79,1.47,11.33,11.33,0,0,1,2.39,2.26Z" transform="translate(0 0.01)"/><path class="cls-1" d="M196.77,14.21H204V26.35h13.93V14.21h7.18V46.78h-7.18V32.7H204V46.78h-7.18Z" transform="translate(0 0.01)"/><path class="cls-1" d="M232,14.21h22.13v6.62h-15v6.08h14.12v6.62H239.14v6.63h15.78v6.62H232Z" transform="translate(0 0.01)"/><path class="cls-1" d="M282,22.68a7,7,0,0,0-2.6-2A8.6,8.6,0,0,0,275.8,20a8.93,8.93,0,0,0-6.74,3,10.38,10.38,0,0,0-2,3.34,12.75,12.75,0,0,0,0,8.39A10.53,10.53,0,0,0,269,38,8.81,8.81,0,0,0,272,40.2a8.46,8.46,0,0,0,3.61.78,8,8,0,0,0,3.91-.92,7.74,7.74,0,0,0,2.8-2.57l6,4.46A12.44,12.44,0,0,1,283,46.23a16.23,16.23,0,0,1-6.53,1.38,20,20,0,0,1-7-1.2A16.16,16.16,0,0,1,263.88,43a15.4,15.4,0,0,1-3.65-5.4,18.32,18.32,0,0,1-1.31-7.09,18.3,18.3,0,0,1,1.31-7.08,15.4,15.4,0,0,1,3.65-5.4,16.16,16.16,0,0,1,5.57-3.43,20,20,0,0,1,7-1.2,17,17,0,0,1,2.87.26,15.54,15.54,0,0,1,2.95.8,13.51,13.51,0,0,1,2.78,1.47,11.1,11.1,0,0,1,2.39,2.26Z" transform="translate(0 0.01)"/><path class="cls-1" d="M292.45,14.21h7.18V27.73l12.65-13.52h9.38L307.17,29.35,322.9,46.78h-10L299.63,31.32V46.78h-7.18Z" transform="translate(0 0.01)"/></g></g></g></svg>