<svg id="Component_16_1" data-name="Component 16 – 1" xmlns="http://www.w3.org/2000/svg" width="262.13" height="51" viewBox="0 0 262.13 51">
  <path id="Path_426" data-name="Path 426" d="M153.34,142.992H111.395a1.341,1.341,0,0,1-.848-.315,1.487,1.487,0,0,1-.57-1.1V99.628a1.489,1.489,0,0,1,.748-1.219,1.329,1.329,0,0,1,.208-.1,2.847,2.847,0,0,1,.7-.171c.373-.041.747-.012,1.121-.02.237,0,.475-.005.712,0,.332,0,.664-.006,1,0,.258-.007.517-.006.775,0,.333,0,.666-.007,1,0q.416-.011.831,0c.351-.014.7,0,1.053,0,.2-.007.405,0,.608,0,.37,0,.739-.006,1.108,0,.24-.006.479-.005.719,0,.332,0,.664-.007,1,0,.258-.007.517-.006.775,0,.333,0,.666-.007,1,0q.416-.011.831,0c.351-.014.7,0,1.053,0,.2-.007.4,0,.607,0,.37,0,.739-.006,1.108,0,.24-.006.479-.005.719,0,.332,0,.664-.007,1,0,.258-.007.517-.006.775,0,.333,0,.666-.007,1,0q.416-.011.831,0c.352-.014.7,0,1.053,0,.2-.007.4,0,.608,0,.369,0,.739-.006,1.108,0,.24-.006.479-.005.719,0,.332,0,.664-.007,1,0,.258-.007.516-.006.775,0,.333,0,.666-.007,1,0q.416-.011.832,0c.351-.014.7,0,1.053,0,.2-.007.4,0,.608,0,.369,0,.738-.006,1.107,0,.237-.007.475,0,.712,0,.321.006.643-.015.964.012.086.012.167.034.2.132,0,.123-.091.186-.16.265a9.465,9.465,0,0,1-.712.767,1.059,1.059,0,0,0-.2.239,6.885,6.885,0,0,0-.521.579c-.108.136-.24.249-.357.376-.185.151-.3.363-.47.529a4.357,4.357,0,0,0-.4.428c-.135.169-.288.32-.437.475-.336.366-.638.762-.993,1.11a.6.6,0,0,1-.34.215c-.767.037-1.534.018-2.3.015-4.583-.016-9.166,0-13.749-.005q-3.083,0-6.168,0a1.564,1.564,0,0,0-.44.025.755.755,0,0,0-.646.834c0,.165,0,.329,0,.5.023.463.01.926.01,1.388q0,4.445,0,8.89a2.688,2.688,0,0,1-.009.324c.011.9.013,1.808,0,2.712.01.267.009.534,0,.8.007.157.009.315.009.472q0,8.73,0,17.461a4.825,4.825,0,0,0,.016.559.862.862,0,0,0,.14.412,1.149,1.149,0,0,0,1,.25c.857-.005,1.713-.012,2.57,0,.3,0,.6-.011.893,0,.3-.008.592-.009.888,0,.3-.009.591-.007.886,0,.277-.01.554-.007.83,0,.314,0,.628-.01.942,0,.3-.008.591-.009.887,0,.3-.011.591,0,.886,0s.591-.008.886,0c.3-.006.591-.011.886,0,.3-.008.591-.009.886,0,.3-.009.591-.007.886,0,.278-.01.555-.007.832,0,.318,0,.636-.01.954,0q1.315-.018,2.63,0c.3,0,.6-.012.9,0,.3-.008.592-.009.888,0,.3-.009.591-.007.886,0,.278-.01.555-.007.832,0,.318,0,.636-.01.954,0q1.315-.018,2.631,0c.3,0,.6-.012.9,0,.3-.008.592-.009.889,0,.3-.009.591-.007.886,0,.278-.01.555-.007.832,0,.318,0,.636-.01.954,0q1.314-.018,2.629,0c.295,0,.59-.012.885,0,.275-.005.551,0,.826,0a.716.716,0,0,0,.786-.571.84.84,0,0,1,.026-.1c.03-.531.011-1.063.011-1.594q0-4.81,0-9.62a1.469,1.469,0,0,0-.04-.5c-.059-1.028-.019-2.056-.021-3.085,0-.636-.032-1.273,0-1.91-.011-.263-.006-.526,0-.789,0-.317-.01-.635,0-.952-.022-.581.016-1.162,0-1.742-.006-.319-.016-.637.009-.955a1.066,1.066,0,0,1,.242-.453,1.284,1.284,0,0,0,.261-.371c.429-.55.819-1.128,1.229-1.692.078-.107.165-.208.235-.321.114-.217.3-.384.43-.588.566-.821,1.147-1.63,1.726-2.44a2.158,2.158,0,0,0,.15-.251c.1-.142.217-.262.319-.4a1.359,1.359,0,0,1,.2-.254c.089-.075.157-.068.187.058a4.326,4.326,0,0,1,.027.707q0,15.467,0,30.934a2.258,2.258,0,0,0,.021.5.582.582,0,0,1,.01.208,1.829,1.829,0,0,1-.775,1.106A2.043,2.043,0,0,1,153.34,142.992Z" transform="translate(-109.977 -93.348)" fill="#3e4347"/>
  <path id="Path_427" data-name="Path 427" d="M161.679,93.883v.059a2.135,2.135,0,0,1-.264.433c-.1.12-.192.252-.288.377-.228.3-.417.624-.646.921s-.43.588-.634.89a2.526,2.526,0,0,0-.2.25c-.14.229-.338.416-.47.65-.4.589-.829,1.158-1.243,1.737a1.016,1.016,0,0,0-.124.154,8.729,8.729,0,0,1-.514.723c-.655.89-1.275,1.806-1.932,2.693-.054.078-.106.158-.165.233-.2.227-.359.491-.542.734-.356.538-.748,1.051-1.135,1.566a1.88,1.88,0,0,0-.139.2q-.242.368-.515.714c-.132.165-.227.355-.35.526a4.142,4.142,0,0,0-.315.416q-.673.929-1.337,1.866c-.032.043-.062.087-.092.131-.188.222-.341.47-.516.7-.107.167-.231.322-.35.48-.083.118-.177.227-.253.35-.174.283-.406.526-.58.809-.038.055-.079.107-.114.165-.2.269-.391.547-.594.815-.4.536-.755,1.1-1.173,1.625-.047.066-.087.136-.136.2-.222.282-.409.589-.629.872-.032.041-.061.086-.091.129-.195.25-.363.519-.554.772a3.945,3.945,0,0,1-.26.353,4.664,4.664,0,0,0-.36.518c-.208.244-.373.518-.574.766a.709.709,0,0,0-.135.19c-.158.252-.35.478-.522.719-.658.927-1.3,1.863-2,2.766-.187.3-.414.569-.6.869a4.068,4.068,0,0,0-.3.376c-.11.185-.237.359-.364.533-.4.572-.825,1.121-1.221,1.693-.091.149-.223.267-.313.417-.119.178-.228.362-.357.534-.457.554-.833,1.167-1.265,1.739-.014.023-.03.045-.045.068-.208.283-.415.567-.623.851a3.283,3.283,0,0,1-.237.322c-.148.185-.281.381-.412.578-.379.557-.775,1.1-1.182,1.639a1.887,1.887,0,0,0-.235.321c-.144.243-.334.454-.481.694-.425.528-.791,1.1-1.182,1.649a9.133,9.133,0,0,0-.713.992,4.129,4.129,0,0,0-.249.331l-.056.069c-.223.278-.352.283-.523-.016-.253-.442-.56-.851-.788-1.308a7.487,7.487,0,0,1-.431-.7c-.053-.094-.114-.183-.168-.277-.157-.252-.317-.5-.469-.759a4.52,4.52,0,0,1-.313-.5c-.089-.12-.144-.26-.231-.382-.568-.886-1.109-1.788-1.657-2.685-.346-.531-.674-1.073-1-1.617-.223-.383-.45-.764-.7-1.134-.363-.581-.71-1.173-1.074-1.755-.353-.549-.7-1.1-1.037-1.662-.164-.252-.293-.525-.476-.765a.667.667,0,0,1-.04-.071c-.208-.346-.438-.679-.621-1.04-.063-.1-.131-.2-.2-.3a5.86,5.86,0,0,1-.341-.557c-.342-.571-.7-1.132-1.051-1.7a6.992,6.992,0,0,0-.416-.656,1.556,1.556,0,0,0-.154-.26c-.283-.434-.242-.517.27-.554.852-.006,1.7-.013,2.554,0,.278,0,.556-.005.833,0,.4-.005.641.307.934.505a9.345,9.345,0,0,1,.767.589c.933.69,1.827,1.432,2.775,2.1a.633.633,0,0,1,.068.048,10.866,10.866,0,0,0,.876.679c.065.046.122.1.187.149a5.99,5.99,0,0,0,.644.468c.4.321.8.629,1.215.932.29.215.292.212.549-.046a4.449,4.449,0,0,0,.413-.482c.463-.476.88-1,1.356-1.461a2.336,2.336,0,0,0,.354-.383c.719-.844,1.485-1.645,2.231-2.465a.561.561,0,0,0,.158-.173c.237-.244.445-.515.684-.758a1.366,1.366,0,0,0,.236-.263c.189-.238.417-.441.61-.676a3.175,3.175,0,0,0,.235-.259c.223-.187.371-.44.58-.639a3.713,3.713,0,0,0,.3-.311c.157-.182.306-.371.473-.545.858-.918,1.686-1.862,2.533-2.789.689-.754,1.37-1.514,2.062-2.264.359-.39.706-.79,1.071-1.175.308-.261.51-.62.812-.886.033-.042.064-.086.1-.126.256-.277.528-.539.775-.826a1.207,1.207,0,0,1,.1-.129c.226-.217.405-.475.63-.693.086-.083.173-.166.252-.256.149-.195.311-.38.468-.568.125-.118.247-.239.365-.365a7.965,7.965,0,0,0,.559-.6c.121-.158.253-.307.387-.453a3.174,3.174,0,0,0,.393-.439c.458-.479.884-.987,1.355-1.454a2.262,2.262,0,0,0,.352-.381c.432-.575.956-1.068,1.429-1.606a1.81,1.81,0,0,0,.132-.148,9.936,9.936,0,0,0,.68-.777.863.863,0,0,0,.149-.128c.222-.252.446-.5.68-.741.07-.094.167-.165.236-.26.162-.21.367-.38.537-.584.119-.1.2-.246.312-.353a7.955,7.955,0,0,1,.538-.6c.154-.177.321-.343.461-.533a.9.9,0,0,1,.877-.4c1.129.026,2.26.009,3.389.011A.625.625,0,0,1,161.679,93.883Z" transform="translate(-114.417 -91.501)" fill="#61d038"/>
  <text id="GovCHECK" transform="translate(61.13 41)" fill="#61d038" font-size="38" font-family="SegoeUIBlack, Segoe UI"><tspan x="0" y="0">Gov</tspan><tspan y="0" fill="#3e4347">CHECK</tspan></text>
</svg>
